<svg width="14" height="158" xmlns="http://www.w3.org/2000/svg">
  <path fill="#484c51" d="M0 81.11v-4.68c.95-.06 1.67-.2 2.15-.43.48-.24.9-.63 1.25-1.18.35-.56.6-1.25.72-2.09.1-.62.16-61.7.16-63.26 0-2.52.11-4.28.35-5.27.23-1 .66-1.8 1.27-2.4C6.5 1.18 7.4.7 8.57.35 9.37.12 10.62 0 12.32 0h1.04v4.67c-1.45 0-2.38.08-2.8.25-.4.16-.7.4-.9.74-.19.33-.29.9-.29 1.7 0 .82-.05 62.38-.17 64.67a11.9 11.9 0 0 1-.5 3.15c-.28.79-.63 1.45-1.06 1.97a8.02 8.02 0 0 1-1.94 1.62c.77.44 1.4.96 1.88 1.56.5.59.87 1.3 1.13 2.15.26.85.43 1.98.5 3.4.1 2.16.15 63.54.15 64.14 0 .86.1 1.46.3 1.8.22.34.53.59.95.76.43.18 1.34.27 2.75.27v4.69h-1.04c-1.75 0-3.1-.14-4.04-.43a4.97 4.97 0 0 1-3.67-3.8c-.22-.96-.33-2.46-.33-4.52 0-2.4-.1-63.95-.32-64.67a4.02 4.02 0 0 0-1.3-2.23A4.66 4.66 0 0 0 0 81.11z"/>
</svg>
